<svg width="100" height="101" viewBox="0 0 100 101" fill="none" xmlns="http://www.w3.org/2000/svg">
<path d="M1.20293 91.1141L17.6019 74.7762C18.3775 74.0035 19.4184 73.5663 20.5205 73.5663C20.9797 73.5663 21.4389 73.6477 21.8573 73.79C28.6332 65.1584 31.9702 48.8103 32.9498 43.2085C33.2866 40.4431 33.8989 37.5151 34.7969 34.4346C37.695 24.4915 43.3178 14.1519 48.7773 8.70256C53.8899 3.60902 60.8189 0.813171 68.2887 0.813171C72.3094 0.813171 76.2688 1.60618 80.065 3.18202C83.9734 4.79853 87.5042 7.16738 90.5656 10.2072C96.3109 15.9311 99.6478 23.3833 99.9744 31.1914C100.301 39.1113 97.4947 46.4415 92.0759 51.84C88.2084 55.6932 81.8814 59.6582 74.7177 62.7286C69.6154 64.9144 64.4926 66.4598 59.7678 67.2629C59.5331 67.2934 37.4909 70.6485 27.0923 79.0157C27.5923 80.4594 27.2658 82.1165 26.1127 83.2654L9.71368 99.6033C8.93812 100.376 7.89723 100.813 6.79512 100.813C5.69301 100.813 4.65213 100.386 3.87657 99.6033L1.19273 96.9295C-0.3992 95.3333 -0.3992 92.7205 1.20293 91.1141ZM52.6755 60.9392C54.2879 60.9392 55.9819 60.7969 57.7269 60.5326C58.1657 60.4614 58.482 60.4106 58.6453 60.3801C69.3296 58.5501 81.5651 52.45 87.1369 46.899C95.5149 38.5623 94.8312 24.3085 85.6266 15.1381C80.9324 10.4614 74.6157 7.78755 68.299 7.78755C62.6966 7.78755 57.5228 9.86156 53.7368 13.6436C49.1039 18.2593 44.0832 27.6127 41.5218 36.3866C40.9299 38.4301 40.4707 40.3923 40.1645 42.2324L40.2054 42.2426C40.185 42.4154 40.0727 43.178 39.8584 44.3878C39.1645 50.4675 40.1646 55.1849 42.7974 57.8079C44.8893 59.8921 48.2059 60.9392 52.6755 60.9392ZM40.4299 64.8128C39.491 64.2129 38.6338 63.5216 37.8481 62.7387C37.144 62.0372 36.5011 61.2646 35.9398 60.4309C35.1846 62.7692 34.3275 65.1584 33.3376 67.4866C35.6847 66.4699 38.0828 65.5854 40.4299 64.8128Z" fill="#1D1D1B"/>
<path d="M25.9697 18.8036C25.9697 23.7532 21.9378 27.7701 16.9697 27.7701C12.0016 27.7701 7.96973 23.7532 7.96973 18.8036C7.96973 13.854 12.0016 9.8371 16.9697 9.8371C21.9378 9.8371 25.9697 13.854 25.9697 18.8036Z" fill="#1D1D1B"/>
</svg>
