<svg id="Layer_1" data-name="Layer 1" xmlns="http://www.w3.org/2000/svg" xmlns:xlink="http://www.w3.org/1999/xlink" viewBox="0 0 2227.9 598.5"><defs><style>.cls-1{opacity:0.3;}.cls-2{fill:url(#linear-gradient);}.cls-3{fill:url(#linear-gradient-2);}.cls-4{fill:url(#linear-gradient-3);}.cls-5{fill:url(#linear-gradient-4);}.cls-6{fill:#1d1d1b;}</style><linearGradient id="linear-gradient" x1="42.52" y1="260.92" x2="284.87" y2="260.92" gradientUnits="userSpaceOnUse"><stop offset="0" stop-color="#1d1d1b"/><stop offset="0.99" stop-color="#1d1d1b" stop-opacity="0"/></linearGradient><linearGradient id="linear-gradient-2" x1="246.08" y1="209.35" x2="468.11" y2="209.35" gradientUnits="userSpaceOnUse"><stop offset="0.01" stop-color="#1d1d1b" stop-opacity="0"/><stop offset="1" stop-color="#1d1d1b"/></linearGradient><linearGradient id="linear-gradient-3" x1="-10" y1="260.93" x2="232.34" y2="260.93" gradientTransform="matrix(-1, 0, 0, 1, 841.52, 0)" xlink:href="#linear-gradient"/><linearGradient id="linear-gradient-4" x1="193.54" y1="209.35" x2="415.59" y2="209.35" gradientTransform="matrix(-1, 0, 0, 1, 841.52, 0)" xlink:href="#linear-gradient-2"/></defs><title>Монтажная область 3@сквош</title><g class="cls-1"><path class="cls-2" d="M265.5,387.4A19.3,19.3,0,0,1,248.3,377C183.1,251.8,53.1,171.2,51.8,170.4A19.4,19.4,0,0,1,72,137.3c5.7,3.4,140.4,86.8,210.7,221.8a19.4,19.4,0,0,1-8.3,26.1A18.9,18.9,0,0,1,265.5,387.4Z"/><path class="cls-3" d="M265.5,387.4a18.7,18.7,0,0,1-5.7-.8,19.5,19.5,0,0,1-12.9-24.3C287.3,231.3,388,76.4,436.2,35.8a19.4,19.4,0,1,1,25,29.7C417.5,102.2,321.8,251.1,284,373.7A19.2,19.2,0,0,1,265.5,387.4Z"/><path class="cls-4" d="M628.6,387.4a19.6,19.6,0,0,1-9-2.2,19.3,19.3,0,0,1-8.2-26.1c70.3-135,204.9-218.4,210.6-221.8a19.4,19.4,0,1,1,20.3,33.1C841,171.2,711,251.8,645.8,377A19.4,19.4,0,0,1,628.6,387.4Z"/><path class="cls-5" d="M628.6,387.4A19.4,19.4,0,0,1,610,373.7C572.3,251.1,476.5,102.2,432.9,65.5a19.4,19.4,0,1,1,24.9-29.7c48.2,40.6,149,195.5,189.3,326.5a19.5,19.5,0,0,1-12.8,24.3A18.7,18.7,0,0,1,628.6,387.4Z"/></g><path class="cls-6" d="M498.6,50.7A50.7,50.7,0,1,1,448,0,50.5,50.5,0,0,1,498.6,50.7Z"/><path class="cls-6" d="M101.3,141.6A50.7,50.7,0,1,1,50.7,90.9,50.6,50.6,0,0,1,101.3,141.6Z"/><path class="cls-6" d="M898.7,141.6A50.7,50.7,0,1,1,848,90.9,50.7,50.7,0,0,1,898.7,141.6Z"/><path class="cls-6" d="M1432.6,226.6A153.9,153.9,0,0,0,1278.7,77.5c-84.7,0-153.5,68.4-154,153V332.2a47.3,47.3,0,1,0,94.6,0V226.6a59.4,59.4,0,0,1,118.7.8V332.2a47.3,47.3,0,0,0,47.3,47.3c26.1,0,47.3-21.6,47.3-47.7Z"/><path class="cls-6" d="M2075.1,77.5a153.9,153.9,0,0,0-149.2,153.8c0,84.8,68.5,153.5,153.1,154.1h101.6a47.4,47.4,0,0,0,0-94.7H2075.1a59.4,59.4,0,0,1,.8-118.7h104.7a47.3,47.3,0,1,0-.3-94.5Z"/><path class="cls-6" d="M1726.2,290.6h-30.4a59.4,59.4,0,0,1,.8-118.7h104.7a47.2,47.2,0,0,0,47.3-47.2c0-26.2-21.5-47.3-47.7-47.3H1695.8a154,154,0,0,0,3.9,307.9l30.4-.2a59.4,59.4,0,0,1-.8,118.7H1624.6a47.2,47.2,0,0,0-47.3,47.3c0,26.1,21.5,47.3,47.6,47.3h105.2c82.8-2.6,149.2-70.5,149.2-153.9A154,154,0,0,0,1726.2,290.6Z"/></svg>